<?xml version="1.0" encoding="iso-8859-1"?>
<!-- Generator: Adobe Illustrator 19.0.0, SVG Export Plug-In . SVG Version: 6.00 Build 0)  -->
<svg xmlns="http://www.w3.org/2000/svg" xmlns:xlink="http://www.w3.org/1999/xlink" version="1.1" id="Layer_1" x="0px" y="0px" viewBox="0 0 512 512" style="enable-background:new 0 0 512 512;" xml:space="preserve">
<path style="fill:#DEDAD2;" d="M367.802,257.214c-1.696,0-3.42-0.271-5.118-0.841c-8.41-2.825-12.936-11.933-10.11-20.343  l31.725-94.431l-77.243-77.094c-6.279-6.267-6.288-16.438-0.022-22.717c6.267-6.28,16.437-6.29,22.718-0.022l84.296,84.133  c4.32,4.311,5.824,10.699,3.879,16.485l-34.899,103.877C380.773,252.975,374.513,257.214,367.802,257.214z"/>
<g>
	<path style="fill:#BDB5A5;" d="M367.801,225.162L367.801,225.162c-19.274,0-34.898,15.624-34.898,34.898v36.788h69.796V260.06   C402.699,240.786,387.075,225.162,367.801,225.162z"/>
	<circle style="fill:#BDB5A5;" cx="402.697" cy="137.267" r="31.497"/>
</g>
<path style="opacity:0.1;enable-background:new    ;" d="M343.947,98.984l12.177-12.177c3.185-3.185,5.989-6.647,8.41-10.324  l-34.783-34.715c-6.281-6.269-16.451-6.258-22.718,0.022c-6.267,6.279-6.257,16.45,0.022,22.717l36.117,36.047L343.947,98.984z"/>
<path style="fill:#BDB5A5;" d="M317.485,80.012l15.922-15.922c12.824-12.824,12.824-33.616,0-46.44l0,0  c-12.824-12.824-33.616-12.824-46.44,0l-15.922,15.922l-33.723,16.652l63.511,63.511L317.485,80.012z"/>
<rect x="255.996" y="398.693" style="fill:#F28337;" width="178.196" height="105.279"/>
<rect x="255.996" y="296.851" style="fill:#FF8A3A;" width="178.196" height="118.28"/>
<g>
	<rect x="234.235" y="296.851" style="fill:#B8703F;" width="43.537" height="207.121"/>
	<rect x="412.432" y="296.851" style="fill:#B8703F;" width="43.537" height="207.121"/>
	<rect x="60.333" y="296.851" style="fill:#B8703F;" width="43.537" height="207.121"/>
</g>
<polygon style="opacity:0.1;enable-background:new    ;" points="412.427,296.848 277.768,296.848 255.999,296.848 234.231,296.848   234.231,358.42 455.965,358.42 455.965,296.848 434.196,296.848 "/>
<rect x="60.333" y="296.851" style="opacity:0.1;enable-background:new    ;" width="43.537" height="61.576"/>
<path style="fill:#FF462E;" d="M469.552,267.403H42.446c-11.808,0-21.379,9.572-21.379,21.379v16.132  c0,11.808,9.572,21.379,21.379,21.379h427.105c11.808,0,21.379-9.572,21.379-21.379v-16.132  C490.931,276.974,481.36,267.403,469.552,267.403z"/>
<path style="opacity:0.1;enable-background:new    ;" d="M402.699,168.767c-9.536,0-18.077-4.244-23.852-10.94l-10.969,32.652  c8.866,5.822,19.263,9.484,30.449,10.247l10.971-32.658C407.169,168.523,404.963,168.767,402.699,168.767z"/>
<circle cx="345.094" cy="370.711" r="12.195"/>
<circle cx="345.094" cy="459.552" r="12.195"/>
<circle cx="402.697" cy="137.267" r="10.619"/>
<path d="M42.447,334.325h9.849v89.453c0,4.436,3.596,8.032,8.032,8.032s8.032-3.596,8.032-8.032v-89.453h27.474v161.612H68.358  v-40.031c0-4.436-3.596-8.032-8.032-8.032c-4.436,0-8.032,3.596-8.032,8.032v48.063c0,4.436,3.596,8.032,8.032,8.032h43.538  c4.436,0,8.032-3.596,8.032-8.032V334.325h114.303v169.643c0,4.436,3.596,8.032,8.032,8.032h43.537h134.66h0.002h43.535  c4.437,0,8.032-3.596,8.032-8.032V394.163c0-4.436-3.595-8.032-8.032-8.032s-8.032,3.596-8.032,8.032v101.773h-27.473V334.325  h27.473v27.711c0,4.436,3.595,8.032,8.032,8.032s8.032-3.596,8.032-8.032v-27.711h5.556c16.218,0,29.411-13.193,29.411-29.411  v-16.132c0-16.218-13.193-29.411-29.411-29.411h-58.838c-0.19-11.967-5.298-22.755-13.392-30.436l18.242-54.296  c15.498-5.35,26.665-20.075,26.665-37.368c0-21.797-17.733-39.529-39.529-39.529c-1.746,0-3.462,0.126-5.149,0.347l-47.644-47.552  c0.755-3.128,1.15-6.366,1.15-9.667c0-10.917-4.251-21.18-11.97-28.899C331.367,4.251,321.104,0,310.187,0  c-10.917,0-21.18,4.251-28.899,11.97l-14.986,14.985l-32.537,16.066c-2.321,1.146-3.947,3.341-4.368,5.895  c-0.422,2.554,0.414,5.154,2.246,6.985l63.511,63.511c1.519,1.519,3.567,2.353,5.679,2.353c0.434,0,0.871-0.035,1.306-0.107  c2.554-0.421,4.749-2.048,5.895-4.369l13.382-27.102l42.09,42.009c-0.214,1.662-0.336,3.353-0.336,5.073  c0,8.143,2.477,15.717,6.713,22.013l-20.895,62.196c-14.074,6.89-23.837,21.256-24.102,37.89H180.589  c-4.436,0-8.032,3.596-8.032,8.032s3.596,8.032,8.032,8.032h288.962c7.36,0,13.348,5.987,13.348,13.348v16.132  c0,7.36-5.987,13.348-13.348,13.348H42.447c-7.36,0-13.348-5.987-13.348-13.348V288.78c0-7.36,5.987-13.348,13.348-13.348h106.016  c4.436,0,8.032-3.596,8.032-8.032s-3.596-8.032-8.032-8.032H42.447c-16.218,0-29.411,13.193-29.411,29.411v16.132  C13.035,321.132,26.229,334.325,42.447,334.325z M394.437,115.381c2.587-1.016,5.377-1.576,8.262-1.576  c12.939,0,23.465,10.527,23.465,23.465c0,11.269-7.987,20.706-18.596,22.954c-14.18,2.994-28.334-8.461-28.334-22.954  C379.234,127.484,385.675,118.822,394.437,115.381z M330.932,54.489c-0.924,1.419-1.996,2.74-3.204,3.922  c0,0-13.371,13.371-13.373,13.373l-2.549,2.548c-0.62,0.62-1.134,1.338-1.523,2.124l-11.692,23.678l-47.67-47.669l23.68-11.692  c0.786-0.388,1.504-0.903,2.122-1.522l15.922-15.922c4.685-4.685,10.916-7.266,17.541-7.266c6.627,0,12.855,2.581,17.541,7.266  c4.685,4.685,7.266,10.915,7.266,17.54C334.993,45.611,333.553,50.467,330.932,54.489z M369.621,115.604l-38.221-38.147l7.687-7.687  c1.144-1.143,2.214-2.363,3.216-3.631c0.073-0.092,0.153-0.179,0.225-0.272l38.442,38.368  C376.449,107.205,372.584,111.076,369.621,115.604z M382.76,171.396c3.522,2.061,7.371,3.55,11.349,4.452  c1.276,0.289,2.577,0.515,3.876,0.668l-14.622,43.524c-4.914-1.914-10.188-2.891-15.462-2.912c-0.169-0.001-0.338,0-0.508,0.002  L382.76,171.396z M340.943,259.371c0.285-11.229,7.495-20.765,17.509-24.495c8.102-3.018,17.505-1.824,24.609,3.09  c6.829,4.732,11.375,12.538,11.599,21.404h-53.717V259.371z M285.799,334.325h118.598v72.774H285.799V334.325z M285.799,423.162  h118.597v72.775H285.799V423.162z M242.263,334.325h27.474v80.805v80.806h-27.474V334.325z"/>
<g>
</g>
<g>
</g>
<g>
</g>
<g>
</g>
<g>
</g>
<g>
</g>
<g>
</g>
<g>
</g>
<g>
</g>
<g>
</g>
<g>
</g>
<g>
</g>
<g>
</g>
<g>
</g>
<g>
</g>
</svg>
